<svg xmlns="http://www.w3.org/2000/svg" width="600" height="600" fill="none" viewBox="0 0 600 600"><defs><linearGradient id="blueGradient" x1="0%" x2="100%" y1="0%" y2="100%"><stop offset="0%" style="stop-color:#3b82f6;stop-opacity:1"/><stop offset="100%" style="stop-color:#60a5fa;stop-opacity:1"/></linearGradient></defs><path fill="url(#blueGradient)" stroke="none" d="M 192 252 L 280 252 L 280 504 C 280 525 268 560 240 572 C 212 584 180 584 152 572 C 124 560 112 525 112 504 C 112 483 124 448 152 436 L 152 396 C 110 408 72 443 72 504 C 72 565 110 600 152 612 C 194 624 246 624 288 612 C 330 600 368 565 368 504 L 368 252 L 456 252"/><path fill="url(#blueGradient)" stroke="url(#blueGradient)" stroke-linejoin="round" stroke-width="8" d="M 456 252 L 520 316 L 576 172 L 456 252 L 520 316 L 368 360"/></svg>